
<svg width="120" height="80" viewBox="0 0 120 80" fill="none" xmlns="http://www.w3.org/2000/svg">
  <defs>
    <linearGradient id="lbcGradient" x1="0%" y1="0%" x2="100%" y2="100%">
      <stop offset="0%" style="stop-color:#E53E3E;stop-opacity:1" />
      <stop offset="100%" style="stop-color:#C53030;stop-opacity:1" />
    </linearGradient>
  </defs>
  
  <!-- Shield background -->
  <path d="M60 10C32 10 10 25 10 45C10 65 32 75 60 75C88 75 110 65 110 45C110 25 88 10 60 10Z" fill="url(#lbcGradient)"/>
  
  <!-- White overlay for depth -->
  <path d="M60 15C35 15 15 28 15 45C15 62 35 70 60 70C85 70 105 62 105 45C105 28 85 15 60 15Z" fill="white" fill-opacity="0.1"/>
  
  <!-- LBC Text -->
  <text x="60" y="50" font-family="Arial, sans-serif" font-size="24" font-weight="bold" text-anchor="middle" fill="white">LBC</text>
  
  <!-- Decorative swoosh -->
  <path d="M25 35C40 30 80 30 95 35C95 40 80 45 60 45C40 45 25 40 25 35Z" fill="white" fill-opacity="0.3"/>
</svg>
